<svg width="120" height="47" viewBox="0 0 120 47" fill="none" xmlns="http://www.w3.org/2000/svg">
<g clip-path="url(#clip0_385_465)">
<path d="M27.5206 20.7906L24.3733 24.3865H0V0H27.484L24.3733 3.59592H7.46569V20.8089H27.5206V20.7906Z" fill="white"/>
<path d="M57.2735 0V24.3865H49.2405V14.0004H37.8956V24.3865H30.064V0H57.2735ZM37.8224 3.59592V10.3862H49.0759V3.59592H37.8224Z" fill="white"/>
<path d="M89.9359 20.6994L84.4099 24.3865H66.3129L63.1656 20.7906H80.5306L81.8298 19.2938V13.9639H62.5068V3.86972L65.8188 0H89.2589L86.1848 3.59592H72.0402L70.4666 5.3665V10.3862H89.9176V20.6994H89.9359Z" fill="white"/>
<path d="M120 0V24.3865H112.626V13.9639H99.9817V24.3865H92.7173V0H99.9817V10.3862H112.626V0H120Z" fill="white"/>
<path d="M12.4245 31.0309L17.2919 38.7156L13.7054 46.3637H0V31.0309H12.4245ZM4.59286 44.1003H9.24062L12.7539 38.7156L9.24062 33.2761H4.59286V44.1003Z" fill="#DE8F74"/>
<path d="M26.2579 39.1354L19.0483 31.0309H24.3548L28.5451 35.7585L32.7354 31.0309H38.0419L30.8324 39.1354V46.3637H26.2213V39.1354H26.2579Z" fill="#DE8F74"/>
<path d="M57.2187 31.0309V46.3637H52.1684V39.829H45.0321V46.3637H40.1099V31.0309H57.2187ZM44.9955 33.2943V37.5656H52.0586V33.2943H44.9955Z" fill="#DE8F74"/>
<path d="M77.7491 44.0455L74.2725 46.3637H62.891L60.9147 44.1003H71.8205L72.6256 43.1511V39.7925H60.4756V33.4403L62.5616 31.0126H77.2917L75.3521 33.276H66.4591L65.471 34.3895V37.5473H77.6943V44.0272L77.7491 44.0455Z" fill="#DE8F74"/>
<path d="M96.8343 33.2943H92.0219V46.3637H86.9898V33.2943H81.4638L79.5059 31.0309H98.7922L96.8343 33.2943Z" fill="#DE8F74"/>
<path d="M108.179 39.1354L100.97 31.0309H106.276L110.467 35.7585L114.657 31.0309H119.963L112.754 39.1354V46.3637H108.143V39.1354H108.179Z" fill="#DE8F74"/>
</g>
<defs>
<clipPath id="clip0_385_465">
<rect width="120" height="46.3636" fill="white"/>
</clipPath>
</defs>
</svg>
